<?xml version="1.0" encoding="utf-8"?>
<!-- Generator: Adobe Illustrator 16.0.0, SVG Export Plug-In . SVG Version: 6.00 Build 0)  -->
<!DOCTYPE svg PUBLIC "-//W3C//DTD SVG 1.1//EN" "http://www.w3.org/Graphics/SVG/1.1/DTD/svg11.dtd">
<svg version="1.1" xmlns="http://www.w3.org/2000/svg" xmlns:xlink="http://www.w3.org/1999/xlink" x="0px" y="0px" width="570px"
	 height="825px" viewBox="0 0 570 825" enable-background="new 0 0 570 825" xml:space="preserve">
<g id="Layer_1" display="none">
	<text transform="matrix(1 0 0 1 0.9028 219.752)" display="inline"><tspan x="0" y="0" font-family="'Union-Regular'" font-size="300">YES</tspan><tspan x="0" y="300" font-family="'Union-Regular'" font-size="300">YES</tspan><tspan x="0" y="600" font-family="'Union-Regular'" font-size="300">YES</tspan></text>
</g>
<g id="Layer_1_copy">
	<g>
		<path d="M163.805,5.25h32.7l-83.701,125.401v89.101h-28.5v-89.101L1.503,5.25h34.2l63.601,101.701L163.805,5.25z"/>
		<path d="M216.6,5.25h151.501v24.9H245.1V96.75h114.902v24.601H245.1v73.801h126.001v24.6H216.6V5.25z"/>
		<path d="M533.098,67.95c-1.801-28.8-21.9-44.1-52.501-44.1c-28.2,0-48.301,12.9-48.301,36c0,13.2,11.101,20.4,21.9,24.601
			c19.2,7.5,58.801,16.2,74.4,22.2c25.201,9.3,39.901,26.1,39.901,53.701c0,39.6-38.101,63.601-81.602,63.601
			c-53.7,0-89.101-27-90.001-73.801l26.7-1.2c2.7,41.101,38.701,51,63.001,51c29.7,0,53.7-12.6,53.7-38.1
			c0-14.4-7.5-23.101-23.1-29.701c-15.9-6.9-53.701-14.7-74.701-22.8c-20.1-7.8-38.4-21.9-38.4-48.301c0-37.2,34.501-60,76.201-60
			c47.4,0,78.9,22.8,80.4,66L533.098,67.95z"/>
		<path d="M163.805,305.25h32.7l-83.701,125.4v89.102h-28.5V430.65L1.503,305.25h34.2l63.601,101.701L163.805,305.25z"/>
		<path d="M216.6,305.25h151.501v24.9H245.1v66.601h114.902v24.601H245.1v73.801h126.001v24.6H216.6V305.25z"/>
		<path d="M533.098,367.95c-1.801-28.8-21.9-44.1-52.501-44.1c-28.2,0-48.301,12.9-48.301,36c0,13.2,11.101,20.4,21.9,24.601
			c19.2,7.5,58.801,16.2,74.4,22.2c25.201,9.3,39.901,26.1,39.901,53.701c0,39.6-38.101,63.601-81.602,63.601
			c-53.7,0-89.101-27.001-90.001-73.801l26.7-1.2c2.7,41.101,38.701,51,63.001,51c29.7,0,53.7-12.6,53.7-38.1
			c0-14.4-7.5-23.101-23.1-29.701c-15.9-6.899-53.701-14.7-74.701-22.799c-20.1-7.8-38.4-21.9-38.4-48.301
			c0-37.2,34.501-60,76.201-60c47.4,0,78.9,22.8,80.4,66L533.098,367.95z"/>
		<path d="M163.805,605.25h32.7l-83.701,125.4v89.102h-28.5V730.65L1.503,605.25h34.2l63.601,101.701L163.805,605.25z"/>
		<path d="M216.6,605.25h151.501v24.9H245.1v66.6h114.902v24.6H245.1v73.801h126.001v24.602H216.6V605.25z"/>
		<path d="M533.098,667.949c-1.801-28.799-21.9-44.1-52.501-44.1c-28.2,0-48.301,12.9-48.301,36c0,13.201,11.101,20.4,21.9,24.6
			c19.2,7.5,58.801,16.201,74.4,22.201c25.201,9.301,39.901,26.1,39.901,53.701c0,39.6-38.101,63.6-81.602,63.6
			c-53.7,0-89.101-27-90.001-73.801l26.7-1.199c2.7,41.1,38.701,51,63.001,51c29.7,0,53.7-12.6,53.7-38.1
			c0-14.4-7.5-23.102-23.1-29.701c-15.9-6.9-53.701-14.699-74.701-22.801c-20.1-7.799-38.4-21.9-38.4-48.299
			c0-37.201,34.501-60.002,76.201-60.002c47.4,0,78.9,22.801,80.4,66.002L533.098,667.949z"/>
	</g>
</g>
</svg>
